# xmcd
#
# Track frame offsets:
#	150
#	15763
#	33090
#	51157
#	75391
#	87119
#	100501
#	112707
#	129058
#	145015
#	154715
#	170191
#	183157
#	199102
#	210760
#	228152
#	238630
#	252134
#	266448
#	280172
#
# Disc length: 3982 seconds
#
# Revision: 3374092408
# Processed by: cddbd v1.5.2PL0 Copyright (c) Steve Scherf et al.
# Submitted via: EZCDAudioConverter 8.5.0.1
#
DISCID=e00f8c14
DTITLE=Dolly Parton, Linda Ronstadt and Emmylou Harris - The Complete Trio Colle
DTITLE=ction
DYEAR=2016
DGENRE=Country
TTITLE0=Wildflowers [Alternate]
TTITLE1=Waltz Across Texas Tonight
TTITLE2=Lover's Return
TTITLE3=Softly And Tenderly
TTITLE4=Pleasant As May
TTITLE5=My Dear Companion [Alternate]
TTITLE6=My Blue Tears
TTITLE7=Making Plans [Alternate]
TTITLE8=I've Had Enough [Alternate Mix]
TTITLE9=Grey Funnel Line
TTITLE10=You Don't Knock
TTITLE11=Where Will The Words Come From
TTITLE12=Do I Ever Cross Your Mind [Alternate]
TTITLE13=Are You Tired Of Me
TTITLE14=Even Cowgirls Get The Blues
TTITLE15=Mr. Sandman
TTITLE16=Handful Of Dust
TTITLE17=Calling My Children Home [Acapella]
TTITLE18=In A Deep Sleep
TTITLE19=Farther Along [Alternate]
EXTD=
EXTT0=
EXTT1=
EXTT2=
EXTT3=
EXTT4=
EXTT5=
EXTT6=
EXTT7=
EXTT8=
EXTT9=
EXTT10=
EXTT11=
EXTT12=
EXTT13=
EXTT14=
EXTT15=
EXTT16=
EXTT17=
EXTT18=
EXTT19=
PLAYORDER=
